<svg width="17" height="17" fill="none" xmlns="http://www.w3.org/2000/svg"><path d="M8.5 0A8.5 8.5 0 1017 8.5 8.51 8.51 0 008.5 0zm.365 16.253v-1.496a.365.365 0 00-.73 0v1.496A7.767 7.767 0 01.748 8.865h1.495a.365.365 0 000-.73H.748A7.767 7.767 0 018.135.748v1.495a.365.365 0 00.73 0V.748a7.767 7.767 0 017.388 7.387h-1.496a.365.365 0 000 .73h1.499a7.767 7.767 0 01-7.391 7.388z" fill="#005FA3"/><path d="M12.347 11.891l-3.482-3.54V4.67a.365.365 0 00-.73 0V8.5c0 .096.039.187.106.255l3.585 3.647a.365.365 0 00.521-.51z" fill="#005FA3"/></svg>