<svg width="17" height="17" fill="none" xmlns="http://www.w3.org/2000/svg"><path d="M8.488 0a6.237 6.237 0 00-6.23 6.23c0 1.579.994 3.808 2.956 6.628a44.451 44.451 0 002.902 3.723l.372.419.372-.42c.06-.066 1.47-1.661 2.903-3.722 1.961-2.82 2.956-5.05 2.956-6.628A6.237 6.237 0 008.489 0zm2.465 12.282a45.188 45.188 0 01-2.465 3.206A45.143 45.143 0 016.03 12.29C4.212 9.678 3.252 7.582 3.252 6.23A5.242 5.242 0 018.488.994a5.242 5.242 0 015.237 5.236c0 1.35-.959 3.444-2.772 6.052z" fill="#005FA3"/><path d="M8.488 2.303A3.681 3.681 0 004.811 5.98a3.681 3.681 0 003.677 3.677 3.681 3.681 0 003.678-3.677 3.681 3.681 0 00-3.678-3.677zm0 6.36A2.686 2.686 0 015.805 5.98a2.686 2.686 0 012.683-2.683 2.686 2.686 0 012.684 2.683 2.686 2.686 0 01-2.684 2.683z" fill="#005FA3"/></svg>