<svg width="40" height="40" fill="none" xmlns="http://www.w3.org/2000/svg"><g clip-path="url(#clip0)"><path d="M32.584 4.45c-.023-.024-.07-.047-.093-.093.023.046.07.07.093.093zm-.44-.348c-.023-.023-.07-.046-.093-.07l-.046-.023.046.023c.023.024.07.047.093.07zm-.186-.139l-.07-.046.07.046zm-.255-.185l.047.046c0-.023-.023-.023-.047-.046l-.046-.024.046.024zm-.023-.024zm-.417-.278c-.046-.023-.07-.046-.116-.07.047.024.093.047.116.07zM23.29.278c-.069-.023-.161-.023-.23-.046-.047 0-.07 0-.117-.023.047 0 .07 0 .116.023a.83.83 0 01.232.046zm5.169 1.599c-.209-.093-.394-.185-.58-.255.21.07.394.162.58.255zm2.317 1.275a.458.458 0 01.116.07c-.023-.024-.07-.047-.116-.07zM26.072.927c-.046-.023-.093-.023-.14-.046-.045-.024-.092-.024-.138-.047.046.023.093.023.139.047.023.023.07.046.139.046zm-.765-.209c-.023-.023-.046-.023-.07-.023h-.023.024c.023 0 .046 0 .07.023zm2.433.835a.37.37 0 01.14.07c-.047-.024-.07-.047-.14-.07zm2.527 1.274l.092.07c.07.046.14.07.186.116-.07-.047-.116-.07-.186-.116l-.093-.07c-.023 0-.023-.023-.046-.023.023.023.023.023.047.023zm2.479 1.762c-.046-.047-.093-.07-.139-.116.047.046.093.07.14.116zm-2.758-1.924l.14.07-.14-.07-.023-.023c-.023 0-.023-.023-.046-.023.023 0 .023.023.046.023l.023.023zM28.505 1.9l.162.093c.07.023.14.07.186.093-.07-.023-.14-.07-.186-.093l-.162-.093s0-.023 0 0c0-.023 0 0 0 0zm-1.483-.625c.14.046.301.115.487.185.023 0 .023 0 .046.023-.023 0-.023 0-.046-.023-.186-.07-.348-.14-.487-.185l-.093-.024h-.023.023l.093.024zM.209 17.103c0-.023 0-.07.023-.093v-.023.023c-.023.024-.023.047-.023.093zm-.093.672v-.07c.023.024 0 .047 0 .07zm-.07.765v-.023.023c0 .07-.023.162-.023.232.023-.093.023-.162.023-.232zm10.406 8.18c0 .024.023.047.023.047-.023 0-.023-.023-.023-.046zM20.742.023c.44.023.903.046 1.344.093a12.47 12.47 0 00-1.344-.093zm3.453.417c.139.023.255.047.37.093-.115-.046-.254-.07-.37-.093zM28.9 2.086c.3.139.579.301.857.463-.279-.162-.557-.324-.858-.463zm4.124 2.734c-.046-.023-.07-.07-.116-.092l-.07-.07.07.07c.047.023.093.07.116.092zM13.465 8.714c1.715-1.831 3.8-3.268 6.164-4.172.719-.278 1.437-.51 2.179-.672-.742.186-1.46.394-2.179.672a16.438 16.438 0 00-6.164 4.172zm3.545 25.469a16.494 16.494 0 01-5.029-4.704 15.74 15.74 0 01-1.274-2.179c.37.742.788 1.483 1.274 2.178a17.08 17.08 0 005.03 4.705zM4.287 30.267C1.576 27.578.07 24.009 0 20.209v-.163.163c.07 3.8 1.576 7.37 4.287 10.058zM33.465 5.214c.046.047.07.07.115.093-.023-.023-.069-.046-.115-.093l-.047-.046-.023-.023.023.023.047.046zm.555.51l-.069-.07-.092-.092.092.093c0 .023.047.046.07.07zm-.3-.278c-.024-.023-.07-.046-.093-.093.023.024.046.07.093.093z" fill="#FFFAF7"/><path d="M.232 16.94v.047c0 .023 0 .07-.023.093v.208c0 .07-.024.14-.024.21 0 .069-.023.115-.023.184v.07c0 .07-.023.14-.023.209 0 .046 0 .116-.023.162v.371c0 .07-.023.162-.023.231v1.136C0 19.93 0 19.93 0 19.954v.255c.046 3.8 1.576 7.37 4.287 10.034a14.366 14.366 0 0011.936 4.033c.278-.023.533-.07.81-.116a16.494 16.494 0 01-5.028-4.705 15.75 15.75 0 01-1.275-2.178c-.093-.162-.162-.348-.232-.51 0-.023-.023-.046-.023-.046A16.644 16.644 0 019.061 20c0-3.407 1.02-6.674 2.967-9.479.44-.648.927-1.251 1.46-1.807 1.715-1.831 3.8-3.268 6.164-4.172.719-.278 1.437-.51 2.179-.672a15.938 15.938 0 013.8-.44c3.013 0 5.91.811 8.436 2.294l-.07-.07-.092-.092-.023-.023c-.023-.023-.07-.047-.093-.093-.023-.023-.07-.046-.093-.093l-.023-.023c-.046-.023-.07-.07-.116-.092l-.046-.047-.023-.023a1.007 1.007 0 00-.162-.14 1.007 1.007 0 01-.163-.138c-.023-.023-.046-.023-.046-.046-.046-.024-.07-.07-.116-.093l-.07-.07-.046-.046-.023-.023-.023-.023c-.046-.047-.093-.07-.14-.116-.022-.023-.069-.047-.092-.093a14.518 14.518 0 00-.324-.255c-.023-.023-.07-.046-.093-.07l-.046-.023-.023-.023h-.024l-.07-.046-.022-.023-.093-.07-.023-.023-.047-.046-.023-.024c-.023-.023-.07-.046-.092-.069l-.024-.023c-.092-.07-.162-.116-.255-.186-.046-.023-.07-.046-.115-.07l-.024-.022c-.046-.047-.116-.07-.162-.116-.023 0-.023-.023-.046-.023-.046-.024-.093-.047-.116-.07-.07-.046-.116-.07-.186-.116-.069-.046-.115-.07-.185-.116l-.093-.07c-.023 0-.023-.022-.046-.022s-.046-.024-.07-.024c-.023 0-.023-.023-.046-.023l-.139-.07-.023-.022c-.023 0-.023-.024-.046-.024a.458.458 0 01-.116-.07h-.023c-.279-.161-.58-.3-.858-.463h-.023c-.07-.023-.14-.07-.186-.092l-.44-.186h-.023c-.209-.092-.394-.185-.58-.255-.046-.023-.092-.046-.138-.046h-.047l-.07-.023c-.022 0-.046-.023-.092-.023-.023 0-.023 0-.046-.023-.186-.07-.348-.14-.487-.186l-.093-.023h-.023l-.093-.023c-.255-.093-.486-.186-.764-.255h-.023c-.047-.023-.093-.023-.14-.046-.046-.024-.092-.024-.139-.047-.023 0-.07-.023-.092-.023-.116-.023-.209-.07-.325-.093h-.046c0-.139-.023-.139-.046-.139h-.047c-.208-.046-.417-.116-.649-.162-.116-.023-.255-.046-.37-.093-.21-.046-.44-.092-.65-.139-.069-.023-.162-.023-.231-.046-.07-.023-.162-.023-.232-.046-.046 0-.07 0-.116-.024-.046 0-.093-.023-.139-.023-.232-.023-.463-.07-.695-.092-.44-.047-.904-.07-1.344-.093C20.51 0 20.255 0 20 0c-.417 0-.858.023-1.275.046h-.139c-.463.024-.927.07-1.39.14-.093.023-.162.023-.255.046L.23 16.94z" fill="#005FA3"/><path d="M39.768 23.036v-.023c0-.023 0-.047.023-.093v-.023c0-.046.024-.07.024-.116v-.069l.023-.116.023-.093c0-.093.023-.162.023-.232s.023-.139.023-.208c0-.07.024-.116.024-.163v-.208c0-.047 0-.093.023-.163v-.023c0-.07.023-.139.023-.231 0-.07 0-.163.023-.232v-1.252a14.245 14.245 0 00-4.287-10.034 14.366 14.366 0 00-10.128-4.149c-.88 0-1.761.07-2.595.232a16.494 16.494 0 015.029 4.705c1.946 2.78 2.966 6.048 2.966 9.478 0 3.407-1.02 6.675-2.966 9.479a16.552 16.552 0 01-7.625 5.979 16.392 16.392 0 01-5.98 1.112c-3.012 0-5.909-.81-8.435-2.294h.023l.047.046.046.047.093.092c.046.047.116.116.185.163.046.046.093.07.116.115.07.07.139.14.232.209l.139.14.023.022.139.116.023.023c.047.023.07.07.116.093l.023.023.023.023c.024.023.07.07.116.093h.047c.023.023.07.046.092.07.116.092.209.162.325.255.023.023.046.046.07.046a.32.32 0 00.092.07c.023.023.023.023.046.023l.024.023c.046.023.092.07.139.092l.046.024c.023.023.046.023.07.046.023.023.069.046.092.07l.046.023c.093.07.163.115.255.185.047.023.07.046.116.07l.023.023.093.07.093.069c.046.023.093.07.162.093.046.023.116.069.162.092h.186l.231.209c.024.023.07.046.116.07.07.046.14.092.209.115.046.023.116.07.162.093.301.162.603.324.904.463.07.023.139.07.208.093 0 0 .024 0 .024.023.07.023.116.07.185.093.185.093.37.185.58.255l.138.07c.024 0 .024.023.047.023.07.023.116.046.185.07.162.069.325.115.487.184.046.024.116.047.162.07.255.093.51.185.742.255.046.023.093.023.139.046.07.024.139.047.232.07l.07.023c.092.023.184.046.254.07.046.023.093.023.14.046.555.139 1.111.278 1.668.37.07.024.139.024.231.047.093.023.163.023.232.046.07.023.162.023.232.023.927.14 1.854.186 2.804.186.927 0 1.877-.07 2.804-.185h.024c.069 0 .139-.024.231-.024l16.71-16.709.115.093z" fill="#222"/></g><defs><clipPath id="clip0"><path fill="#fff" d="M0 0h40v40H0z"/></clipPath></defs></svg>