<svg width="40" height="30" fill="none" xmlns="http://www.w3.org/2000/svg"><path d="M34.608 0H4.822A4.825 4.825 0 000 4.82v20.36A4.825 4.825 0 004.82 30H34.6c2.66 0 4.82-2.162 4.82-4.82V4.828A4.82 4.82 0 0034.609 0zm2.619 25.18a2.621 2.621 0 01-2.618 2.618H4.82a2.621 2.621 0 01-2.619-2.619V4.83a2.621 2.621 0 012.62-2.62H34.6a2.621 2.621 0 012.618 2.619v20.35h.008z" fill="#fff"/><path d="M24.861 14.747l9.641-8.646c.449-.408.49-1.1.082-1.558a1.107 1.107 0 00-1.558-.081L19.731 16.395l-2.594-2.317c-.008-.008-.016-.016-.016-.024a1.642 1.642 0 00-.18-.155L6.387 4.454a1.1 1.1 0 00-1.558.09 1.1 1.1 0 00.09 1.557l9.755 8.72-9.715 9.094a1.106 1.106 0 001.51 1.615l9.86-9.225 2.676 2.39a1.1 1.1 0 001.468-.008l2.749-2.463 9.804 9.314c.212.204.49.302.759.302a1.1 1.1 0 00.758-1.9l-9.682-9.193z" fill="#fff"/></svg>